<?xml version="1.0" encoding="UTF-8" ?>
<!DOCTYPE svg PUBLIC "-//W3C//DTD SVG 1.1//EN" "http://www.w3.org/Graphics/SVG/1.1/DTD/svg11.dtd">
<svg width="75pt" height="36pt" viewBox="0 0 75 36" version="1.1" xmlns="http://www.w3.org/2000/svg">
<g id="#e8d06ffe">
<path fill="#e8d06f" opacity="1.00" d=" M 24.59 0.00 L 28.07 0.00 C 30.81 0.10 34.60 1.54 33.91 4.97 C 32.55 10.00 27.14 12.26 23.05 14.71 C 26.98 16.27 30.28 19.41 30.52 23.84 C 33.79 21.08 38.22 19.67 42.47 20.51 C 43.30 21.63 43.68 23.40 42.66 24.52 C 40.43 27.21 37.59 29.31 34.92 31.55 C 37.11 31.48 39.30 31.46 41.48 31.48 C 43.51 23.90 47.64 17.16 50.62 9.95 C 49.11 8.98 47.62 7.97 46.17 6.91 C 50.76 1.17 58.87 0.98 65.56 0.00 L 69.08 0.00 C 71.37 0.14 73.53 1.04 75.00 2.85 L 75.00 5.35 C 72.96 9.99 68.23 12.38 64.03 14.71 C 66.51 16.09 69.41 17.39 70.60 20.17 C 72.15 22.98 70.99 26.61 68.45 28.40 C 62.78 32.81 55.32 33.08 48.66 34.98 C 45.69 35.80 41.53 37.04 40.33 33.08 C 36.47 34.11 32.66 35.37 28.71 36.00 L 28.15 36.00 C 27.81 35.46 27.13 34.39 26.79 33.85 C 30.84 30.08 35.45 26.88 39.02 22.62 C 37.50 23.57 36.03 24.59 34.59 25.65 C 33.05 25.73 31.52 25.77 29.98 25.78 C 26.17 30.71 19.89 32.38 14.05 33.50 C 9.38 34.24 4.82 36.47 0.00 35.50 L 0.00 33.03 C 2.02 24.87 6.41 17.65 9.63 9.96 C 8.12 8.98 6.63 7.96 5.18 6.90 C 9.79 1.17 17.89 0.97 24.59 0.00 M 19.60 5.78 C 17.96 7.38 17.60 9.92 16.53 11.93 C 20.20 9.73 24.22 7.98 27.29 4.91 C 24.72 5.10 22.11 5.13 19.60 5.78 M 60.03 5.84 C 59.25 7.89 58.42 9.92 57.52 11.93 C 61.19 9.72 65.22 7.98 68.28 4.90 C 65.52 5.05 62.76 5.34 60.03 5.84 M 6.85 29.46 C 12.60 27.30 19.50 26.71 23.90 22.02 C 20.97 19.72 17.22 19.24 13.69 18.56 C 11.32 22.14 8.87 25.67 6.85 29.46 M 47.83 29.47 C 53.59 27.31 60.48 26.70 64.88 22.02 C 61.95 19.72 58.20 19.24 54.67 18.57 C 52.30 22.15 49.84 25.67 47.83 29.47 Z" />
</g>
</svg>
